#!OML:ASF I:\Actors\actors\Patient Classification 1\Patient 1\Session 1\Subject1.ASF
:FULLY-SPECIFIED
:DEGREES
1266
root -0.665423 17.5564 7.70788 8.71524 -3.07544 -7.4936
lowerback 0.399135 0.28794 5.35355
upperback -11.4323 0.991255 2.28912
thorax -12.5445 0.0734721 -0.597154
lowerneck -16.4895 -3.2066 -0.888218
upperneck 26.7233 -5.6006 4.06584
head 11.604 -2.11709 0.818601
rclavicle -9.10682e-015 7.70291e-015
rhumerus -61.4544 -5.6954 -89.1773
rradius 122.618
rwrist 9.99986
rhand -19.4624 -36.2032
rfingers 7.12502
rthumb 6.85882 -66.0721
lclavicle -9.10682e-015 7.70291e-015
lhumerus -60.0537 1.58341 90.6839
lradius 115.12
lwrist 11.2954
lhand -34.9388 -29.8836
lfingers 7.12502
lthumb -8.08575 -0.0582449
rfemur -1.59065 22.3822 27.2234
rtibia 2.40004
rfoot -13.437 -23.527
rtoes 5.63067
lfemur 3.12798 -37.2772 -12.6145
ltibia -3.02982
lfoot -12.8568 44.6431
ltoes 2.69971
1267
root -0.670062 17.5566 7.71008 8.60506 -2.93511 -7.5156
lowerback 0.338418 0.140919 5.3244
upperback -11.3754 0.794397 2.41754
thorax -12.4518 -0.00782033 -0.420484
lowerneck -16.2808 -3.1273 -1.13441
upperneck 26.4466 -5.4535 4.26069
head 11.4651 -2.06007 0.956369
rclavicle -1.07095e-014 1.42131e-014
rhumerus -62.8765 -6.59747 -89.2968
rradius 122.377
rwrist 9.4972
rhand -18.6222 -35.8604
rfingers 7.12502
rthumb 7.6698 -65.7013
lclavicle -1.07095e-014 1.42131e-014
lhumerus -61.0731 2.6057 90.5622
lradius 115.148
lwrist 11.3724
lhand -35.1659 -30.6431
lfingers 7.12502
lthumb -8.30491 -0.826314
rfemur -1.50598 22.3171 27.33
rtibia 2.49538
rfoot -13.5374 -23.6089
rtoes 5.58324
lfemur 3.19427 -37.1223 -12.5962
ltibia -3.01924
lfoot -12.6337 44.3835
ltoes 2.39695
1268
root -0.672712 17.557 7.70828 8.49473 -2.83127 -7.47803
lowerback 0.293095 0.038215 5.24723
upperback -11.2798 0.646381 2.47195
thorax -12.3176 -0.0645099 -0.304703
lowerneck -16.2807 -3.08918 -1.27448
upperneck 26.3207 -5.39503 4.41451
head 11.4243 -2.03066 1.04477
rclavicle 9.27299e-015 -4.79568e-015
rhumerus -63.8515 -7.28139 -89.3921
rradius 122.111
rwrist 9.20132
rhand -18.1379 -35.6715
rfingers 7.12502
rthumb 8.13722 -65.4948
lclavicle 9.27299e-015 -4.79568e-015
lhumerus -61.7068 3.48399 90.4096
lradius 115.145
lwrist 11.1483
lhand -35.1616 -30.9237
lfingers 7.12502
lthumb -8.30075 -1.10679
rfemur -1.44685 22.1445 27.3322
rtibia 2.57756
rfoot -13.5507 -23.5767
rtoes 5.35284
lfemur 3.24471 -37.0184 -12.6562
ltibia -2.99073
lfoot -12.3984 44.2034
ltoes 1.98296
1269
root -0.673584 17.5571 7.70411 8.38471 -2.75545 -7.44006
lowerback 0.276496 -0.00255364 5.20984
upperback -11.1718 0.579485 2.44781
thorax -12.1816 -0.0910527 -0.30573
lowerneck -16.4161 -3.10531 -1.20965
upperneck 26.2915 -5.45017 4.46398
head 11.4424 -2.04089 1.04175
rclavicle 1.7549e-015 -6.07536e-015
rhumerus -64.3999 -7.75278 -89.4913
rradius 121.861
rwrist 9.0378
rhand -18.0409 -35.6386
rfingers 7.12502
rthumb 8.23085 -65.4582
lclavicle 1.7549e-015 -6.07536e-015
lhumerus -62.0078 4.04701 90.278
lradius 115.134
lwrist 11.0746
lhand -34.9542 -30.5147
lfingers 7.12502
lthumb -8.10061 -0.689957
rfemur -1.39593 21.9563 27.3125
rtibia 2.65679
rfoot -13.5584 -23.4721
rtoes 5.26604
lfemur 3.2978 -36.984 -12.738
ltibia -2.93764
lfoot -12.3272 44.0854
ltoes 1.87022
1270
root -0.673352 17.5559 7.70024 8.27521 -2.72853 -7.43733
lowerback 0.246867 -0.0262512 5.2017
upperback -11.0816 0.539136 2.43921
thorax -12.0584 -0.107171 -0.308576
lowerneck -16.5092 -3.1104 -1.08825
upperneck 26.3218 -5.49435 4.45922
head 11.4707 -2.04698 1.01167
rclavicle 1.51698e-014 -3.12092e-014
rhumerus -64.6434 -7.7839 -89.5928
rradius 121.628
rwrist 8.90797
rhand -18.1906 -35.7301
rfingers 7.12502
rthumb 8.08638 -65.5554
lclavicle 1.51698e-014 -3.12092e-014
lhumerus -62.1352 4.36702 90.2115
lradius 115.142
lwrist 11.3674
lhand -34.9332 -29.9953
lfingers 7.12502
lthumb -8.08033 -0.169738
rfemur -1.31008 21.8339 27.3361
rtibia 2.69023
rfoot -13.542 -23.3797
rtoes 5.24865
lfemur 3.40528 -36.9879 -12.8212
ltibia -2.90426
lfoot -12.405 44.0533
ltoes 2.06554
1271
root -0.67337 17.5542 7.69641 8.16143 -2.76864 -7.42746
lowerback 0.226698 -0.0327026 5.13686
upperback -11.0333 0.524154 2.46274
thorax -11.9892 -0.10477 -0.246841
lowerneck -16.4532 -3.08941 -1.04893
upperneck 26.3608 -5.49263 4.50706
head 11.4751 -2.03641 1.02381
rclavicle -5.28022e-015 8.00108e-015
rhumerus -64.6931 -7.47154 -89.6068
rradius 121.386
rwrist 8.89003
rhand -18.2918 -35.639
rfingers 7.12502
rthumb 7.98875 -65.468
lclavicle -5.28022e-015 8.00108e-015
lhumerus -62.1894 4.44923 90.2078
lradius 115.139
lwrist 11.8045
lhand -35.2455 -30.0063
lfingers 7.12502
lthumb -8.38174 -0.192614
rfemur -1.19697 21.8018 27.3649
rtibia 2.69586
rfoot -13.4841 -23.3383
rtoes 5.0326
lfemur 3.57272 -36.9767 -12.9451
ltibia -2.90826
lfoot -12.3988 44.0923
ltoes 2.00186
1272
root -0.672593 17.5537 7.68973 8.05963 -2.8009 -7.44705
lowerback 0.273281 0.0229133 5.12135
upperback -11.021 0.598753 2.43151
thorax -11.9993 -0.0688908 -0.280148
lowerneck -16.3962 -3.12754 -1.00305
upperneck 26.4282 -5.60325 4.63415
head 11.4971 -2.06519 1.04733
rclavicle 1.76421e-015 2.65874e-015
rhumerus -64.5789 -7.24645 -89.5002
rradius 121.199
rwrist 8.95217
rhand -18.1542 -35.3461
rfingers 7.12502
rthumb 8.12147 -65.1701
lclavicle 1.76421e-015 2.65874e-015
lhumerus -62.0473 4.13919 90.2647
lradius 115.061
lwrist 12.0528
lhand -35.4906 -30.1942
lfingers 7.12502
lthumb -8.61828 -0.390116
rfemur -1.11681 21.8557 27.427
rtibia 2.73717
rfoot -13.4755 -23.3644
rtoes 4.91421
lfemur 3.67166 -36.8819 -12.9762
ltibia -2.89725
lfoot -12.356 44.0182
ltoes 1.8255
1273
root -0.669927 17.5541 7.68107 8.02523 -2.84122 -7.50569
lowerback 0.293966 0.150062 5.19892
upperback -11.0195 0.768392 2.32601
thorax -12.0011 -0.000740453 -0.455574
lowerneck -16.4513 -3.24053 -0.848394
upperneck 26.531 -5.84134 4.70835
head 11.5548 -2.14415 1.01244
rclavicle 1.21756e-015 -1.30701e-014
rhumerus -64.2747 -7.16687 -89.3348
rradius 121.06
rwrist 9.06233
rhand -17.9416 -35.0858
rfingers 7.12502
rthumb 8.32669 -64.9017
lclavicle 1.21756e-015 -1.30701e-014
lhumerus -61.6802 3.51856 90.3474
lradius 114.926
lwrist 12.0562
lhand -35.534 -30.1505
lfingers 7.12502
lthumb -8.66016 -0.348162
rfemur -1.12603 21.9184 27.4887
rtibia 2.7788
rfoot -13.5374 -23.3678
rtoes 5.24176
lfemur 3.67702 -36.8321 -12.9077
ltibia -2.89563
lfoot -12.3986 43.9704
ltoes 1.98746
1274
root -0.667985 17.5542 7.6724 8.0499 -2.96007 -7.5553
lowerback 0.242524 0.213519 5.23078
upperback -11.0571 0.854113 2.32397
thorax -12.0097 0.0369182 -0.483696
lowerneck -16.3607 -3.26662 -0.796059
upperneck 26.6485 -5.89662 4.68831
head 11.5814 -2.16558 0.989712
rclavicle 5.98839e-015 -4.72114e-015
rhumerus -63.8566 -6.68206 -89.1511
rradius 120.892
rwrist 9.20243
rhand -17.8045 -34.9647
rfingers 7.12502
rthumb 8.459 -64.7753
lclavicle 5.98839e-015 -4.72114e-015
lhumerus -61.3585 3.18066 90.392
lradius 114.827
lwrist 11.9048
lhand -35.5283 -30.232
lfingers 7.12502
lthumb -8.65464 -0.429369
rfemur -1.19663 22.0039 27.5098
rtibia 2.78819
rfoot -13.5777 -23.3362
rtoes 5.58372
lfemur 3.64448 -36.7739 -12.8277
ltibia -2.91736
lfoot -12.4871 44.0016
ltoes 2.31434
1275
root -0.665995 17.5549 7.66422 8.05976 -3.08222 -7.54358
lowerback 0.196972 0.184826 5.18146
upperback -11.1343 0.819896 2.41121
thorax -12.0758 0.0284291 -0.35646
lowerneck -16.1015 -3.19726 -0.912945
upperneck 26.7842 -5.78672 4.74068
head 11.583 -2.12357 1.04969
rclavicle -1.6027e-015 2.58172e-014
rhumerus -63.4003 -5.88755 -88.946
rradius 120.717
rwrist 9.38384
rhand -17.6903 -34.9009
rfingers 7.12502
rthumb 8.56921 -64.707
lclavicle -1.6027e-015 2.58172e-014
lhumerus -61.1088 3.1504 90.3763
lradius 114.804
lwrist 11.7865
lhand -35.4021 -30.3816
lfingers 7.12502
lthumb -8.53282 -0.573991
rfemur -1.21707 22.1005 27.4751
rtibia 2.73466
rfoot -13.4842 -23.3461
rtoes 5.33657
lfemur 3.61017 -36.693 -12.8314
ltibia -2.8967
lfoot -12.6412 44.0076
ltoes 2.61895
1276
root -0.662129 17.556 7.65678 8.04619 -3.17992 -7.496
lowerback 0.184678 0.204156 5.15571
upperback -11.2021 0.847302 2.41931
thorax -12.147 0.0426403 -0.334835
lowerneck -15.9106 -3.18535 -1.079
upperneck 26.8881 -5.78482 4.92979
head 11.5967 -2.11727 1.15119
rclavicle -5.31128e-015 -1.10574e-014
rhumerus -62.9062 -5.35921 -88.7498
rradius 120.619
rwrist 9.55218
rhand -17.5792 -34.8836
rfingers 7.12502
rthumb 8.67645 -64.6853
lclavicle -5.31128e-015 -1.10574e-014
lhumerus -60.7386 2.96047 90.3523
lradius 114.823
lwrist 11.8014
lhand -35.2637 -30.1156
lfingers 7.12502
lthumb -8.3993 -0.302586
rfemur -1.16728 22.1379 27.4048
rtibia 2.61609
rfoot -13.3234 -23.3323
rtoes 4.95463
lfemur 3.6148 -36.6507 -12.9175
ltibia -2.87027
lfoot -12.6788 44.0252
ltoes 2.60303
1277
root -0.658101 17.5559 7.6497 8.0621 -3.31494 -7.47016
lowerback 0.184289 0.334239 5.20416
upperback -11.2544 1.02017 2.32022
thorax -12.1983 0.113653 -0.486567
lowerneck -15.8881 -3.27198 -1.11077
upperneck 26.9975 -5.93923 5.03123
head 11.6456 -2.17525 1.17192
rclavicle 1.70209e-015 2.45996e-014
rhumerus -62.3589 -5.23506 -88.587
rradius 120.586
rwrist 9.49868
rhand -17.6256 -34.8983
rfingers 7.12502
rthumb 8.63161 -64.7018
lclavicle 1.70209e-015 2.45996e-014
lhumerus -60.295 2.50092 90.3842
lradius 114.817
lwrist 11.8116
lhand -35.3376 -29.7938
lfingers 7.12502
lthumb -8.47058 0.0163547
rfemur -1.17279 22.1299 27.3342
rtibia 2.53566
rfoot -13.1746 -23.2221
rtoes 4.74428
lfemur 3.6188 -36.603 -12.978
ltibia -2.87204
lfoot -12.6083 44.082
ltoes 2.4042
1278
root -0.655304 17.5547 7.64312 8.10886 -3.42866 -7.45844
lowerback 0.166942 0.491896 5.28023
upperback -11.2921 1.22534 2.16867
thorax -12.2178 0.194861 -0.714304
lowerneck -15.9951 -3.38546 -0.891989
upperneck 27.1546 -6.14413 4.91447
head 11.7247 -2.25399 1.06001
rclavicle -2.93207e-015 1.18277e-014
rhumerus -61.7185 -5.32635 -88.4791
rradius 120.545
rwrist 9.24338
rhand -17.6875 -34.8652
rfingers 7.12502
rthumb 8.57192 -64.6712
lclavicle -2.93207e-015 1.18277e-014
lhumerus -59.8936 1.93667 90.4181
lradius 114.8
lwrist 11.745
lhand -35.5209 -29.9385
lfingers 7.12502
lthumb -8.6475 -0.135623
rfemur -1.25069 22.1537 27.2706
rtibia 2.52266
rfoot -13.0953 -23.1429
rtoes 4.62713
lfemur 3.57236 -36.6168 -12.9899
ltibia -2.86032
lfoot -12.7067 44.1838
ltoes 2.53769
1279
root -0.654043 17.5539 7.63791 8.1384 -3.43693 -7.43693
lowerback 0.132407 0.552609 5.32023
upperback -11.3179 1.30039 2.07769
thorax -12.2203 0.220984 -0.842559
lowerneck -16.0828 -3.43852 -0.726607
upperneck 27.2682 -6.23892 4.78351
head 11.7795 -2.2918 0.968196
rclavicle -2.73329e-015 1.0635e-014
rhumerus -61.0853 -5.29938 -88.4262
rradius 120.498
rwrist 9.04186
rhand -17.5927 -34.8289
rfingers 7.12502
rthumb 8.66337 -64.6311
lclavicle -2.73329e-015 1.0635e-014
lhumerus -59.5656 1.61003 90.4238
lradius 114.828
lwrist 11.7246
lhand -35.6996 -30.0149
lfingers 7.12502
lthumb -8.81991 -0.219179
rfemur -1.29698 22.2007 27.2279
rtibia 2.52288
rfoot -13.0986 -23.1798
rtoes 4.59755
lfemur 3.49979 -36.6499 -12.9785
ltibia -2.83474
lfoot -12.9159 44.2193
ltoes 2.8378
1280
root -0.653868 17.554 7.63207 8.15086 -3.40311 -7.4426
lowerback 0.141016 0.539667 5.34736
upperback -11.3658 1.2879 2.07852
thorax -12.2833 0.210262 -0.854794
lowerneck -16.12 -3.44698 -0.740322
upperneck 27.372 -6.24574 4.75095
head 11.8268 -2.29734 0.957115
rclavicle 6.90777e-015 -2.10712e-014
rhumerus -60.6201 -5.09812 -88.3847
rradius 120.447
rwrist 9.1027
rhand -17.5987 -34.7696
rfingers 7.12502
rthumb 8.6576 -64.5721
lclavicle 6.90777e-015 -2.10712e-014
lhumerus -59.3598 1.59244 90.4393
lradius 114.896
lwrist 11.9532
lhand -35.9059 -29.785
lfingers 7.12502
lthumb -9.01895 0.00216492
rfemur -1.33092 22.2585 27.2361
rtibia 2.54156
rfoot -13.1006 -23.2637
rtoes 4.52277
lfemur 3.42021 -36.6045 -12.8997
ltibia -2.83536
lfoot -12.9436 44.1527
ltoes 2.86425
